<svg width="496" height="497" viewBox="0 0 496 497" fill="none" xmlns="http://www.w3.org/2000/svg">
<path d="M327.18 496.137C347.48 495.456 367.391 495.863 387.059 493.869C428.67 489.652 459.441 468.076 479.904 431.835C490.448 413.161 494.974 392.754 495.002 371.433C495.11 289.77 495.314 208.105 494.938 126.444C494.741 83.7401 477.604 48.9474 442.812 23.6397C422.313 8.72822 399.036 1.06123 373.68 1.01C288.685 0.838301 203.684 0.409631 118.696 1.21014C62.6883 1.73768 13.0699 44.564 2.52206 99.672C0.812286 108.605 0.166473 117.866 0.146515 126.978C-0.0309751 207.807 0.0874939 288.638 0.0250549 369.468C-0.00540207 408.942 14.3044 442.01 44.5561 467.483C67.9925 487.217 95.4887 496.266 126.187 496.188C193.018 496.02 259.849 496.137 327.18 496.137ZM119.003 204.346C140.45 142.373 207.162 99.3856 282.195 118.207C343.738 133.644 381.738 190.423 381.797 236.14C380.015 236.14 378.227 236.14 376.438 236.14C354.606 236.14 332.772 235.94 310.946 236.284C305.656 236.368 303.209 234.883 301.298 229.864C294.445 211.864 282.401 198.719 263.022 194.507C242.319 190.008 222.416 192.048 207.159 208.513C200.981 215.18 196.946 223.938 192.512 232.059C190.926 234.963 189.613 236.108 186.276 236.085C163.113 235.926 139.948 236.001 116.783 236.001C115.31 236.001 113.838 236.001 111.006 236.001C113.685 225.235 116.193 215.155 119.003 204.346ZM315.711 262.999C338.288 262.999 360.866 262.999 383.53 262.999C371.509 340.976 307.785 391.523 233.52 384.819C161.345 378.304 112.383 311.972 113.072 262.86C114.866 262.86 116.677 262.86 118.487 262.86C139.983 262.86 161.484 263.116 182.972 262.696C189.015 262.578 191.867 264.156 194.107 270.008C199.866 285.056 209.823 297.272 225.314 302.515C254.18 312.286 284.845 306.15 300.094 271.864C303.427 264.371 307.243 261.688 315.711 262.999ZM239.833 218.875C254.955 215.329 270.139 222.102 275.602 235.561C281.789 250.804 278.923 265.951 264.021 275.956C251.595 284.299 234.898 282.37 224.372 271.142C208.279 253.978 215.79 225.824 239.833 218.875Z" fill="#FFC93C"/>
<path d="M118.853 204.71C116.193 215.155 113.685 225.235 111.007 236.001C113.838 236.001 115.311 236.001 116.783 236.001C139.948 236.001 163.113 235.926 186.277 236.085C189.613 236.108 190.926 234.963 192.512 232.059C196.946 223.938 200.982 215.18 207.16 208.513C222.416 192.048 242.319 190.008 263.022 194.507C282.401 198.719 294.445 211.864 301.298 229.864C303.209 234.883 305.656 236.368 310.946 236.284C332.772 235.94 354.606 236.14 376.438 236.14C378.227 236.14 380.016 236.14 381.797 236.14C381.738 190.423 343.738 133.644 282.195 118.207C207.162 99.3856 140.45 142.373 118.853 204.71Z" fill="#131311"/>
<path d="M315.218 262.999C307.243 261.688 303.427 264.37 300.094 271.864C284.846 306.15 254.18 312.286 225.314 302.515C209.824 297.272 199.867 285.056 194.107 270.008C191.867 264.156 189.015 262.578 182.973 262.696C161.485 263.116 139.983 262.86 118.487 262.86C116.677 262.86 114.866 262.86 113.072 262.86C112.383 311.972 161.346 378.304 233.52 384.819C307.785 391.522 371.51 340.976 383.53 262.999C360.866 262.999 338.288 262.999 315.218 262.999Z" fill="#131311"/>
<path d="M239.428 218.957C215.79 225.824 208.279 253.978 224.372 271.142C234.898 282.37 251.595 284.299 264.021 275.956C278.923 265.951 281.789 250.804 275.602 235.561C270.139 222.102 254.955 215.329 239.428 218.957Z" fill="#151413"/>
</svg>
