<?xml version="1.0" standalone="no"?>
<!DOCTYPE svg PUBLIC "-//W3C//DTD SVG 20010904//EN"
 "http://www.w3.org/TR/2001/REC-SVG-20010904/DTD/svg10.dtd">
<svg version="1.0" xmlns="http://www.w3.org/2000/svg"
 width="457.000000pt" height="326.000000pt" viewBox="0 0 457.000000 326.000000"
 preserveAspectRatio="xMidYMid meet">

<g transform="translate(0.000000,326.000000) scale(0.100000,-0.100000)"
fill="#000000" stroke="none">
<path d="M2014 2305 c-271 -60 -491 -287 -532 -550 l-9 -55 201 0 201 0 18 43
c24 59 70 112 125 145 42 24 56 27 142 27 86 0 100 -3 142 -27 56 -33 102 -87
124 -145 l17 -43 202 0 202 0 -9 55 c-34 218 -208 432 -419 515 -123 49 -280
62 -405 35z"/>
<path d="M2069 1766 c-91 -62 -91 -200 0 -262 77 -52 196 -22 235 59 52 111
-22 227 -144 227 -42 0 -64 -6 -91 -24z"/>
<path d="M1482 1513 c36 -233 223 -446 463 -529 72 -26 93 -28 215 -28 122 0
143 2 215 28 238 82 415 281 460 517 l13 69 -203 0 -202 0 -18 -47 c-25 -66
-98 -136 -164 -158 -77 -25 -183 -17 -244 18 -54 32 -100 85 -124 144 l-18 43
-201 0 -201 0 9 -57z"/>
</g>
</svg>
