<svg width="50" height="66" viewBox="0 0 50 66" fill="none" xmlns="http://www.w3.org/2000/svg">
<path d="M6.50055 65L10.2805 56.6H11.8165L15.6085 65H13.9765L10.7245 57.428H11.3485L8.10855 65H6.50055ZM8.24055 63.056L8.66055 61.832H13.1965L13.6165 63.056H8.24055ZM16.5328 65V58.592H17.9608V60.356L17.7928 59.84C17.9848 59.408 18.2848 59.08 18.6928 58.856C19.1088 58.632 19.6248 58.52 20.2408 58.52V59.948C20.1768 59.932 20.1168 59.924 20.0608 59.924C20.0048 59.916 19.9488 59.912 19.8928 59.912C19.3248 59.912 18.8728 60.08 18.5368 60.416C18.2008 60.744 18.0328 61.236 18.0328 61.892V65H16.5328ZM24.4667 65.084C23.7547 65.084 23.1307 64.944 22.5947 64.664C22.0667 64.376 21.6547 63.984 21.3587 63.488C21.0707 62.992 20.9267 62.428 20.9267 61.796C20.9267 61.156 21.0667 60.592 21.3467 60.104C21.6347 59.608 22.0267 59.22 22.5227 58.94C23.0267 58.66 23.5987 58.52 24.2387 58.52C24.8627 58.52 25.4187 58.656 25.9067 58.928C26.3947 59.2 26.7787 59.584 27.0587 60.08C27.3387 60.576 27.4787 61.16 27.4787 61.832C27.4787 61.896 27.4747 61.968 27.4667 62.048C27.4667 62.128 27.4627 62.204 27.4547 62.276H22.1147V61.28H26.6627L26.0747 61.592C26.0827 61.224 26.0067 60.9 25.8467 60.62C25.6867 60.34 25.4667 60.12 25.1867 59.96C24.9147 59.8 24.5987 59.72 24.2387 59.72C23.8707 59.72 23.5467 59.8 23.2667 59.96C22.9947 60.12 22.7787 60.344 22.6187 60.632C22.4667 60.912 22.3907 61.244 22.3907 61.628V61.868C22.3907 62.252 22.4787 62.592 22.6547 62.888C22.8307 63.184 23.0787 63.412 23.3987 63.572C23.7187 63.732 24.0867 63.812 24.5027 63.812C24.8627 63.812 25.1867 63.756 25.4747 63.644C25.7627 63.532 26.0187 63.356 26.2427 63.116L27.0467 64.04C26.7587 64.376 26.3947 64.636 25.9547 64.82C25.5227 64.996 25.0267 65.084 24.4667 65.084ZM32.5555 58.52C33.0675 58.52 33.5235 58.62 33.9235 58.82C34.3315 59.02 34.6515 59.328 34.8835 59.744C35.1155 60.152 35.2315 60.68 35.2315 61.328V65H33.7315V61.52C33.7315 60.952 33.5955 60.528 33.3235 60.248C33.0595 59.968 32.6875 59.828 32.2075 59.828C31.8555 59.828 31.5435 59.9 31.2715 60.044C30.9995 60.188 30.7875 60.404 30.6355 60.692C30.4915 60.972 30.4195 61.328 30.4195 61.76V65H28.9195V58.592H30.3475V60.32L30.0955 59.792C30.3195 59.384 30.6435 59.072 31.0675 58.856C31.4995 58.632 31.9955 58.52 32.5555 58.52ZM41.0824 65V63.704L40.9984 63.428V61.16C40.9984 60.72 40.8664 60.38 40.6024 60.14C40.3384 59.892 39.9384 59.768 39.4024 59.768C39.0424 59.768 38.6864 59.824 38.3344 59.936C37.9904 60.048 37.6984 60.204 37.4584 60.404L36.8704 59.312C37.2144 59.048 37.6224 58.852 38.0944 58.724C38.5744 58.588 39.0704 58.52 39.5824 58.52C40.5104 58.52 41.2264 58.744 41.7304 59.192C42.2424 59.632 42.4984 60.316 42.4984 61.244V65H41.0824ZM39.0664 65.084C38.5864 65.084 38.1664 65.004 37.8064 64.844C37.4464 64.676 37.1664 64.448 36.9664 64.16C36.7744 63.864 36.6784 63.532 36.6784 63.164C36.6784 62.804 36.7624 62.48 36.9304 62.192C37.1064 61.904 37.3904 61.676 37.7824 61.508C38.1744 61.34 38.6944 61.256 39.3424 61.256H41.2024V62.252H39.4504C38.9384 62.252 38.5944 62.336 38.4184 62.504C38.2424 62.664 38.1544 62.864 38.1544 63.104C38.1544 63.376 38.2624 63.592 38.4784 63.752C38.6944 63.912 38.9944 63.992 39.3784 63.992C39.7464 63.992 40.0744 63.908 40.3624 63.74C40.6584 63.572 40.8704 63.324 40.9984 62.996L41.2504 63.896C41.1064 64.272 40.8464 64.564 40.4704 64.772C40.1024 64.98 39.6344 65.084 39.0664 65.084Z" fill="black"/>
<g clip-path="url(#clip0_7_177)">
<path d="M23.5833 0.100004C17.4417 0.683337 12.9 2.53334 8.68335 6.16667C7.74168 6.975 7.10835 7.375 6.20835 7.7C-0.224986 10.0667 -2.04165 17.975 2.75835 22.7833C5.23335 25.2833 9.22501 26.225 12.275 25.0417L13.1333 24.7083L13.3583 25.5667C13.5583 26.3 13.6417 26.4167 14 26.4167C14.625 26.4167 14.6083 26.025 13.825 22.575C13.4417 20.875 13.1667 19.45 13.2167 19.3917C13.2667 19.3417 14.6667 19.6083 16.3167 19.9833C19.6417 20.7417 20.1333 20.7917 20.275 20.4C20.425 20.0083 20.025 19.7083 19 19.4417C18.2667 19.25 18.0917 19.1417 18.125 18.8917C18.15 18.725 18.2333 18.075 18.3167 17.4583C18.975 12.6083 15.55 8.1 10.6 7.28334L9.27501 7.06667L10.7667 5.94167C19.7 -0.78333 32.5 -0.241663 40.8167 7.23334C42.0667 8.35834 42.4 8.48334 42.725 7.96667C43.25 7.13334 38.0834 3.39167 34.3084 1.875C31.2084 0.633337 26.3917 -0.166663 23.5833 0.100004ZM10.8667 8.525C12.775 8.925 15.325 10.675 15.9417 12.0083C16.4417 13.0833 16.8583 14.3167 16.95 14.9583L17.0417 15.6667H14.9583H12.8667L12.5 14.9167C11.1333 12.1 7.07501 12.15 5.93335 15L5.66668 15.675L3.54168 15.6333L1.41668 15.5833L1.46668 15.1667C1.98335 10.725 6.43335 7.58334 10.8667 8.525ZM10.35 14.425C11.8583 15.2083 11.8417 17.55 10.325 18.3583C8.35835 19.4167 6.23335 17.3 7.25835 15.3167C7.79168 14.2833 9.25835 13.8583 10.35 14.425ZM6.14168 17.7083C7.11668 19.8667 9.80001 20.5167 11.425 18.9917L11.7667 18.675L12.3167 21.1C12.6167 22.4333 12.8333 23.55 12.8083 23.5833C12.575 23.7917 11.2583 24.2 10.3333 24.3417C6.15835 24.9917 1.93335 21.8583 1.28335 17.625L1.19168 17H3.50001H5.81668L6.14168 17.7083ZM17.15 17.7083C17.075 18.1 17.0083 18.5083 17.0083 18.625C17 18.925 16.5917 18.8833 14.575 18.4083C13.6 18.1833 12.6417 18.0417 12.4583 18.1C12.2667 18.1583 12.1667 18.1333 12.225 18.0417C12.275 17.95 12.4 17.6833 12.4917 17.4417L12.6583 17H14.975H17.2917L17.15 17.7083Z" fill="black"/>
<path d="M47.0084 5.24166C46.7751 5.525 46.7417 5.33333 47.8584 10.3C48.3251 12.35 48.6501 14.0667 48.6001 14.125C48.5417 14.1833 46.7917 13.8417 44.7084 13.3667C40.2751 12.3583 39.8667 12.3083 39.6084 12.7083C39.2584 13.2417 39.8501 13.4667 44.4084 14.5C50.0584 15.775 50.3251 15.725 49.7834 13.475C49.6417 12.8917 49.1667 10.8417 48.7334 8.91666C47.8251 4.89166 47.6334 4.49166 47.0084 5.24166Z" fill="black"/>
<path d="M45.075 8.00834C44.45 8.64167 44.1666 8.825 43.8916 8.75834C43.4666 8.65 43.0833 9.05 43.2416 9.44167C43.3166 9.64167 43.0916 9.98334 42.4833 10.6C41.6416 11.45 41.625 11.4833 42.0166 11.575C45.6083 12.4083 46.9083 12.6583 47.025 12.5417C47.1333 12.4333 46.1 7.38334 45.9333 7.20834C45.9166 7.19167 45.525 7.55 45.075 8.00834Z" fill="black"/>
<path d="M21.5334 15.3667C21.1667 15.7333 21.3084 15.8917 26.6501 21.2333C32.0001 26.5833 32.3167 26.8417 32.6084 26.0667C32.7167 25.7917 22.2917 15.1667 21.9084 15.1667C21.8167 15.1667 21.6417 15.2583 21.5334 15.3667Z" fill="black"/>
<path d="M15.5084 21.7417C15.0584 22.2833 15.8001 22.9333 16.3001 22.4333C16.5167 22.225 16.5334 22.0917 16.4001 21.875C16.1501 21.4833 15.7667 21.425 15.5084 21.7417Z" fill="black"/>
<path d="M17.5334 23.7C17.1667 24.0667 17.3084 24.225 22.6501 29.5667C28.0001 34.9167 28.3167 35.175 28.6084 34.4C28.7167 34.125 18.2917 23.5 17.9084 23.5C17.8167 23.5 17.6417 23.5917 17.5334 23.7Z" fill="black"/>
<path d="M35.6166 23.6C35.4 23.8167 35.4916 24.3833 36.1916 27.4583C36.575 29.1333 36.8416 30.5417 36.7916 30.6C36.7333 30.65 35.3583 30.3917 33.725 30.0167C30.475 29.2667 29.875 29.2 29.725 29.5833C29.575 29.9833 29.95 30.2917 30.8833 30.5083C32.025 30.775 32 30.7583 31.8166 31.375C30.375 36.2083 34.175 41.8833 39.3916 42.6917L40.6916 42.9L40.3 43.2083C30.6583 50.875 18.125 50.6583 9.09162 42.675C7.91662 41.6417 7.59162 41.525 7.27495 42.0333C7.05828 42.3833 7.39162 42.775 9.08328 44.1583C18.8083 52.1167 32.4666 51.8083 41.7916 43.425C42.3166 42.95 42.975 42.5667 43.65 42.3417C48.0916 40.8417 50.7083 36.2917 49.75 31.75C48.65 26.5417 43.15 23.2833 38.1083 24.8333C36.8 25.2417 36.8916 25.275 36.6166 24.3167C36.4083 23.6083 35.9416 23.275 35.6166 23.6ZM43.15 25.9833C44.5 26.4 45.625 27.15 46.7583 28.3667C47.6416 29.325 47.9083 29.925 47.125 29.2167C45.2583 27.5083 41.6666 26.6583 38.7583 27.2333C38.0333 27.375 37.425 27.475 37.4083 27.4583C37.3833 27.4333 37.325 27.175 37.2583 26.8833C37.0333 25.825 40.8 25.25 43.15 25.9833ZM41.7583 31.6667C43.1916 32.3667 43.45 34.2 42.2666 35.2833C41.5333 35.9667 40.35 36.0833 39.5333 35.5583C37.1833 34.0583 39.2416 30.45 41.7583 31.6667ZM37.5166 34.7167C38.3083 37.6667 42.825 37.8083 43.925 34.9167L44.2083 34.1667H46.525C47.7916 34.1667 48.8333 34.225 48.8333 34.2917C48.7583 38.05 44.7916 41.6667 40.75 41.6667C36.8 41.6667 32.8333 38.1583 32.8333 34.6667V34.1583L35.1166 34.2L37.3916 34.25L37.5166 34.7167Z" fill="black"/>
<path d="M33.6749 27.575C33.2249 28.1167 33.9666 28.7667 34.4666 28.2667C34.6832 28.0583 34.6999 27.925 34.5666 27.7083C34.3166 27.3167 33.9332 27.2583 33.6749 27.575Z" fill="black"/>
<path d="M0.316588 34.85C-0.116745 35.2833 -0.258412 34.4667 1.72492 43.075C2.12492 44.825 2.41659 45.25 2.91659 44.8333C3.24992 44.5583 3.23326 44.4 2.13326 39.6083C1.68326 37.6083 1.34992 35.925 1.40826 35.875C1.45826 35.8167 3.20826 36.1583 5.29159 36.6333C9.72492 37.6417 10.1333 37.6917 10.3916 37.2917C10.7416 36.7583 10.1499 36.5333 5.66659 35.5083C0.658255 34.3667 0.783255 34.3833 0.316588 34.85Z" fill="black"/>
<path d="M3.19992 37.7C2.74992 38.15 3.17492 39 3.84992 39C4.29992 39 4.59159 38.3167 4.34159 37.8583C4.13326 37.4667 3.51659 37.3833 3.19992 37.7Z" fill="black"/>
<path d="M4.45005 38.9333C3.97505 39.4167 4.65839 40.3917 5.30005 40.15C5.93339 39.9083 5.75839 38.9333 5.07505 38.8667C4.80005 38.8417 4.51672 38.875 4.45005 38.9333Z" fill="black"/>
<path d="M5.8418 40.1667C5.70847 40.2417 5.58347 40.4917 5.57513 40.7083C5.5668 40.925 5.4918 41.2083 5.4168 41.3417C5.2918 41.55 5.30847 41.55 5.5418 41.3583C5.6918 41.2417 5.95847 41.1833 6.13347 41.2417C6.53347 41.3667 6.80847 41.0417 6.77513 40.4917C6.75013 40.0333 6.30013 39.875 5.8418 40.1667Z" fill="black"/>
</g>
<defs>
<clipPath id="clip0_7_177">
<rect width="50" height="50" fill="white"/>
</clipPath>
</defs>
</svg>
