<svg width="45" height="61" viewBox="0 0 45 61" fill="none" xmlns="http://www.w3.org/2000/svg">
<path d="M4.85909 60L8.66309 51.6H9.85109L13.6671 60H12.4071L9.01109 52.272H9.49109L6.09509 60H4.85909ZM6.47909 57.9L6.80309 56.94H11.5311L11.8791 57.9H6.47909ZM14.7522 60V53.64H15.8562V55.368L15.7482 54.936C15.9242 54.496 16.2202 54.16 16.6362 53.928C17.0522 53.696 17.5642 53.58 18.1722 53.58V54.696C18.1242 54.688 18.0762 54.684 18.0282 54.684C17.9882 54.684 17.9482 54.684 17.9082 54.684C17.2922 54.684 16.8042 54.868 16.4442 55.236C16.0842 55.604 15.9042 56.136 15.9042 56.832V60H14.7522ZM22.3654 60.072C21.6854 60.072 21.0854 59.932 20.5654 59.652C20.0534 59.372 19.6534 58.988 19.3654 58.5C19.0854 58.012 18.9454 57.452 18.9454 56.82C18.9454 56.188 19.0814 55.628 19.3534 55.14C19.6334 54.652 20.0134 54.272 20.4934 54C20.9814 53.72 21.5294 53.58 22.1374 53.58C22.7534 53.58 23.2974 53.716 23.7694 53.988C24.2414 54.26 24.6094 54.644 24.8734 55.14C25.1454 55.628 25.2814 56.2 25.2814 56.856C25.2814 56.904 25.2774 56.96 25.2694 57.024C25.2694 57.088 25.2654 57.148 25.2574 57.204H19.8454V56.376H24.6574L24.1894 56.664C24.1974 56.256 24.1134 55.892 23.9374 55.572C23.7614 55.252 23.5174 55.004 23.2054 54.828C22.9014 54.644 22.5454 54.552 22.1374 54.552C21.7374 54.552 21.3814 54.644 21.0694 54.828C20.7574 55.004 20.5134 55.256 20.3374 55.584C20.1614 55.904 20.0734 56.272 20.0734 56.688V56.88C20.0734 57.304 20.1694 57.684 20.3614 58.02C20.5614 58.348 20.8374 58.604 21.1894 58.788C21.5414 58.972 21.9454 59.064 22.4014 59.064C22.7774 59.064 23.1174 59 23.4214 58.872C23.7334 58.744 24.0054 58.552 24.2374 58.296L24.8734 59.04C24.5854 59.376 24.2254 59.632 23.7934 59.808C23.3694 59.984 22.8934 60.072 22.3654 60.072ZM30.2771 53.58C30.7971 53.58 31.2531 53.68 31.6451 53.88C32.0451 54.08 32.3571 54.384 32.5811 54.792C32.8051 55.2 32.9171 55.716 32.9171 56.34V60H31.7651V56.472C31.7651 55.856 31.6131 55.392 31.3091 55.08C31.0131 54.768 30.5931 54.612 30.0491 54.612C29.6411 54.612 29.2851 54.692 28.9811 54.852C28.6771 55.012 28.4411 55.248 28.2731 55.56C28.1131 55.872 28.0331 56.26 28.0331 56.724V60H26.8811V53.64H27.9851V55.356L27.8051 54.9C28.0131 54.484 28.3331 54.16 28.7651 53.928C29.1971 53.696 29.7011 53.58 30.2771 53.58ZM38.997 60V58.656L38.937 58.404V56.112C38.937 55.624 38.793 55.248 38.505 54.984C38.225 54.712 37.801 54.576 37.233 54.576C36.857 54.576 36.489 54.64 36.129 54.768C35.769 54.888 35.465 55.052 35.217 55.26L34.737 54.396C35.065 54.132 35.457 53.932 35.913 53.796C36.377 53.652 36.861 53.58 37.365 53.58C38.237 53.58 38.909 53.792 39.381 54.216C39.853 54.64 40.089 55.288 40.089 56.16V60H38.997ZM36.909 60.072C36.437 60.072 36.021 59.992 35.661 59.832C35.309 59.672 35.037 59.452 34.845 59.172C34.653 58.884 34.557 58.56 34.557 58.2C34.557 57.856 34.637 57.544 34.797 57.264C34.965 56.984 35.233 56.76 35.601 56.592C35.977 56.424 36.481 56.34 37.113 56.34H39.129V57.168H37.161C36.585 57.168 36.197 57.264 35.997 57.456C35.797 57.648 35.697 57.88 35.697 58.152C35.697 58.464 35.821 58.716 36.069 58.908C36.317 59.092 36.661 59.184 37.101 59.184C37.533 59.184 37.909 59.088 38.229 58.896C38.557 58.704 38.793 58.424 38.937 58.056L39.165 58.848C39.013 59.224 38.745 59.524 38.361 59.748C37.977 59.964 37.493 60.072 36.909 60.072Z" fill="black"/>
<g clip-path="url(#clip0_7_177)">
<path d="M21.225 0.0900235C15.6975 0.615023 11.61 2.28002 7.81499 5.55002C6.96749 6.27752 6.39749 6.63752 5.58749 6.93002C-0.202512 9.06002 -1.83751 16.1775 2.48249 20.505C4.70999 22.755 8.30249 23.6025 11.0475 22.5375L11.82 22.2375L12.0225 23.01C12.2025 23.67 12.2775 23.775 12.6 23.775C13.1625 23.775 13.1475 23.4225 12.4425 20.3175C12.0975 18.7875 11.85 17.505 11.895 17.4525C11.94 17.4075 13.2 17.6475 14.685 17.985C17.6775 18.6675 18.12 18.7125 18.2475 18.36C18.3825 18.0075 18.0225 17.7375 17.1 17.4975C16.44 17.325 16.2825 17.2275 16.3125 17.0025C16.335 16.8525 16.41 16.2675 16.485 15.7125C17.0775 11.3475 13.995 7.29002 9.53999 6.55502L8.34749 6.36002L9.68999 5.34752C17.73 -0.704977 29.25 -0.217477 36.735 6.51002C37.86 7.52252 38.16 7.63502 38.4525 7.17002C38.925 6.42002 34.275 3.05252 30.8775 1.68752C28.0875 0.570023 23.7525 -0.149977 21.225 0.0900235ZM9.77999 7.67252C11.4975 8.03252 13.7925 9.60752 14.3475 10.8075C14.7975 11.775 15.1725 12.885 15.255 13.4625L15.3375 14.1H13.4625H11.58L11.25 13.425C10.02 10.89 6.36749 10.935 5.33999 13.5L5.09999 14.1075L3.18749 14.07L1.27499 14.025L1.31999 13.65C1.78499 9.65252 5.78999 6.82502 9.77999 7.67252ZM9.31499 12.9825C10.6725 13.6875 10.6575 15.795 9.29249 16.5225C7.52249 17.475 5.60999 15.57 6.53249 13.785C7.01249 12.855 8.33249 12.4725 9.31499 12.9825ZM5.52749 15.9375C6.40499 17.88 8.81999 18.465 10.2825 17.0925L10.59 16.8075L11.085 18.99C11.355 20.19 11.55 21.195 11.5275 21.225C11.3175 21.4125 10.1325 21.78 9.29999 21.9075C5.54249 22.4925 1.73999 19.6725 1.15499 15.8625L1.07249 15.3H3.14999H5.23499L5.52749 15.9375ZM15.435 15.9375C15.3675 16.29 15.3075 16.6575 15.3075 16.7625C15.3 17.0325 14.9325 16.995 13.1175 16.5675C12.24 16.365 11.3775 16.2375 11.2125 16.29C11.04 16.3425 10.95 16.32 11.0025 16.2375C11.0475 16.155 11.16 15.915 11.2425 15.6975L11.3925 15.3H13.4775H15.5625L15.435 15.9375Z" fill="black"/>
<path d="M42.3075 4.7175C42.0975 4.9725 42.0675 4.8 43.0725 9.27C43.4925 11.115 43.785 12.66 43.74 12.7125C43.6875 12.765 42.1125 12.4575 40.2375 12.03C36.2475 11.1225 35.88 11.0775 35.6475 11.4375C35.3325 11.9175 35.865 12.12 39.9675 13.05C45.0525 14.1975 45.2925 14.1525 44.805 12.1275C44.6775 11.6025 44.25 9.7575 43.86 8.025C43.0425 4.4025 42.87 4.0425 42.3075 4.7175Z" fill="black"/>
<path d="M40.5675 7.20751C40.005 7.77751 39.75 7.94251 39.5025 7.88251C39.12 7.78501 38.775 8.14501 38.9175 8.49751C38.985 8.67751 38.7825 8.98501 38.235 9.54001C37.4775 10.305 37.4625 10.335 37.815 10.4175C41.0475 11.1675 42.2175 11.3925 42.3225 11.2875C42.42 11.19 41.49 6.64501 41.34 6.48751C41.325 6.47251 40.9725 6.79501 40.5675 7.20751Z" fill="black"/>
<path d="M19.38 13.83C19.05 14.16 19.1775 14.3025 23.985 19.11C28.8 23.925 29.085 24.1575 29.3475 23.46C29.445 23.2125 20.0625 13.65 19.7175 13.65C19.635 13.65 19.4775 13.7325 19.38 13.83Z" fill="black"/>
<path d="M13.9575 19.5675C13.5525 20.055 14.22 20.64 14.67 20.19C14.865 20.0025 14.88 19.8825 14.76 19.6875C14.535 19.335 14.19 19.2825 13.9575 19.5675Z" fill="black"/>
<path d="M15.78 21.33C15.45 21.66 15.5775 21.8025 20.385 26.61C25.2 31.425 25.485 31.6575 25.7475 30.96C25.845 30.7125 16.4625 21.15 16.1175 21.15C16.035 21.15 15.8775 21.2325 15.78 21.33Z" fill="black"/>
<path d="M32.055 21.24C31.86 21.435 31.9425 21.945 32.5725 24.7125C32.9175 26.22 33.1575 27.4875 33.1125 27.54C33.06 27.585 31.8225 27.3525 30.3525 27.015C27.4275 26.34 26.8875 26.28 26.7525 26.625C26.6175 26.985 26.955 27.2625 27.795 27.4575C28.8225 27.6975 28.8 27.6825 28.635 28.2375C27.3375 32.5875 30.7575 37.695 35.4525 38.4225L36.6225 38.61L36.27 38.8875C27.5925 45.7875 16.3125 45.5925 8.18251 38.4075C7.12501 37.4775 6.83251 37.3725 6.54751 37.83C6.35251 38.145 6.65251 38.4975 8.17501 39.7425C16.9275 46.905 29.22 46.6275 37.6125 39.0825C38.085 38.655 38.6775 38.31 39.285 38.1075C43.2825 36.7575 45.6375 32.6625 44.775 28.575C43.785 23.8875 38.835 20.955 34.2975 22.35C33.12 22.7175 33.2025 22.7475 32.955 21.885C32.7675 21.2475 32.3475 20.9475 32.055 21.24ZM38.835 23.385C40.05 23.76 41.0625 24.435 42.0825 25.53C42.8775 26.3925 43.1175 26.9325 42.4125 26.295C40.7325 24.7575 37.5 23.9925 34.8825 24.51C34.23 24.6375 33.6825 24.7275 33.6675 24.7125C33.645 24.69 33.5925 24.4575 33.5325 24.195C33.33 23.2425 36.72 22.725 38.835 23.385ZM37.5825 28.5C38.8725 29.13 39.105 30.78 38.04 31.755C37.38 32.37 36.315 32.475 35.58 32.0025C33.465 30.6525 35.3175 27.405 37.5825 28.5ZM33.765 31.245C34.4775 33.9 38.5425 34.0275 39.5325 31.425L39.7875 30.75H41.8725C43.0125 30.75 43.95 30.8025 43.95 30.8625C43.8825 34.245 40.3125 37.5 36.675 37.5C33.12 37.5 29.55 34.3425 29.55 31.2V30.7425L31.605 30.78L33.6525 30.825L33.765 31.245Z" fill="black"/>
<path d="M30.3075 24.8175C29.9025 25.305 30.57 25.89 31.02 25.44C31.215 25.2525 31.23 25.1325 31.11 24.9375C30.885 24.585 30.54 24.5325 30.3075 24.8175Z" fill="black"/>
<path d="M0.285027 31.365C-0.104973 31.755 -0.232473 31.02 1.55253 38.7675C1.91253 40.3425 2.17503 40.725 2.62503 40.35C2.92503 40.1025 2.91003 39.96 1.92003 35.6475C1.51503 33.8475 1.21503 32.3325 1.26753 32.2875C1.31253 32.235 2.88753 32.5425 4.76253 32.97C8.75253 33.8775 9.12003 33.9225 9.35253 33.5625C9.66753 33.0825 9.13503 32.88 5.10003 31.9575C0.592527 30.93 0.705027 30.945 0.285027 31.365Z" fill="black"/>
<path d="M2.87993 33.93C2.47493 34.335 2.85743 35.1 3.46493 35.1C3.86993 35.1 4.13243 34.485 3.90743 34.0725C3.71993 33.72 3.16493 33.645 2.87993 33.93Z" fill="black"/>
<path d="M4.005 35.04C3.5775 35.475 4.1925 36.3525 4.77 36.135C5.34 35.9175 5.1825 35.04 4.5675 34.98C4.32 34.9575 4.065 34.9875 4.005 35.04Z" fill="black"/>
<path d="M5.25752 36.15C5.13752 36.2175 5.02502 36.4425 5.01752 36.6375C5.01002 36.8325 4.94252 37.0875 4.87502 37.2075C4.76252 37.395 4.77752 37.395 4.98752 37.2225C5.12252 37.1175 5.36252 37.065 5.52002 37.1175C5.88002 37.23 6.12752 36.9375 6.09752 36.4425C6.07502 36.03 5.67002 35.8875 5.25752 36.15Z" fill="black"/>
</g>
<defs>
<clipPath id="clip0_7_177">
<rect width="45" height="45" fill="white"/>
</clipPath>
</defs>
</svg>
