<svg width="59" height="68" viewBox="0 0 59 68" fill="none" xmlns="http://www.w3.org/2000/svg">
<mask id="mask0_384_26" style="mask-type:alpha" maskUnits="userSpaceOnUse" x="4" y="0" width="50" height="50">
<rect x="4" width="50" height="50" fill="#D9D9D9"/>
</mask>
<g mask="url(#mask0_384_26)">
<path d="M12.3333 43.75C11.1875 43.75 10.2069 43.3423 9.39163 42.527C8.57496 41.7104 8.16663 40.7291 8.16663 39.5833V16.6666C8.16663 15.5208 8.57496 14.5402 9.39163 13.725C10.2069 12.9083 11.1875 12.5 12.3333 12.5H20.6666V8.33329C20.6666 7.18746 21.075 6.20621 21.8916 5.38954C22.7069 4.57426 23.6875 4.16663 24.8333 4.16663H33.1666C34.3125 4.16663 35.2937 4.57426 36.1104 5.38954C36.9257 6.20621 37.3333 7.18746 37.3333 8.33329V12.5H45.6666C46.8125 12.5 47.7937 12.9083 48.6104 13.725C49.4257 14.5402 49.8333 15.5208 49.8333 16.6666V39.5833C49.8333 40.7291 49.4257 41.7104 48.6104 42.527C47.7937 43.3423 46.8125 43.75 45.6666 43.75H12.3333ZM24.8333 12.5H33.1666V8.33329H24.8333V12.5ZM45.6666 31.25H35.25V35.4166H22.75V31.25H12.3333V39.5833H45.6666V31.25ZM26.9166 31.25H31.0833V27.0833H26.9166V31.25ZM12.3333 27.0833H22.75V22.9166H35.25V27.0833H45.6666V16.6666H12.3333V27.0833Z" fill="black"/>
</g>
<path d="M1.26781 65V56.6H2.46781V65H1.26781ZM8.21066 58.58C8.73066 58.58 9.18666 58.68 9.57866 58.88C9.97866 59.08 10.2907 59.384 10.5147 59.792C10.7387 60.2 10.8507 60.716 10.8507 61.34V65H9.69866V61.472C9.69866 60.856 9.54666 60.392 9.24266 60.08C8.94666 59.768 8.52666 59.612 7.98266 59.612C7.57466 59.612 7.21866 59.692 6.91466 59.852C6.61066 60.012 6.37466 60.248 6.20666 60.56C6.04666 60.872 5.96666 61.26 5.96666 61.724V65H4.81466V58.64H5.91866V60.356L5.73866 59.9C5.94666 59.484 6.26666 59.16 6.69866 58.928C7.13066 58.696 7.63466 58.58 8.21066 58.58ZM14.5334 65L11.7494 58.64H12.9494L15.4214 64.4H14.8454L17.3654 58.64H18.4934L15.7094 65H14.5334ZM22.2248 65.072C21.5448 65.072 20.9448 64.932 20.4248 64.652C19.9128 64.372 19.5128 63.988 19.2248 63.5C18.9448 63.012 18.8048 62.452 18.8048 61.82C18.8048 61.188 18.9408 60.628 19.2128 60.14C19.4928 59.652 19.8728 59.272 20.3528 59C20.8408 58.72 21.3888 58.58 21.9968 58.58C22.6128 58.58 23.1568 58.716 23.6288 58.988C24.1008 59.26 24.4688 59.644 24.7328 60.14C25.0048 60.628 25.1408 61.2 25.1408 61.856C25.1408 61.904 25.1368 61.96 25.1288 62.024C25.1288 62.088 25.1248 62.148 25.1168 62.204H19.7048V61.376H24.5168L24.0488 61.664C24.0568 61.256 23.9728 60.892 23.7968 60.572C23.6208 60.252 23.3768 60.004 23.0648 59.828C22.7608 59.644 22.4048 59.552 21.9968 59.552C21.5968 59.552 21.2408 59.644 20.9288 59.828C20.6168 60.004 20.3728 60.256 20.1968 60.584C20.0208 60.904 19.9328 61.272 19.9328 61.688V61.88C19.9328 62.304 20.0288 62.684 20.2208 63.02C20.4208 63.348 20.6968 63.604 21.0488 63.788C21.4008 63.972 21.8048 64.064 22.2608 64.064C22.6368 64.064 22.9768 64 23.2808 63.872C23.5928 63.744 23.8648 63.552 24.0968 63.296L24.7328 64.04C24.4448 64.376 24.0848 64.632 23.6528 64.808C23.2288 64.984 22.7528 65.072 22.2248 65.072ZM30.1364 58.58C30.6564 58.58 31.1124 58.68 31.5044 58.88C31.9044 59.08 32.2164 59.384 32.4404 59.792C32.6644 60.2 32.7764 60.716 32.7764 61.34V65H31.6244V61.472C31.6244 60.856 31.4724 60.392 31.1684 60.08C30.8724 59.768 30.4524 59.612 29.9084 59.612C29.5004 59.612 29.1444 59.692 28.8404 59.852C28.5364 60.012 28.3004 60.248 28.1324 60.56C27.9724 60.872 27.8924 61.26 27.8924 61.724V65H26.7404V58.64H27.8444V60.356L27.6644 59.9C27.8724 59.484 28.1924 59.16 28.6244 58.928C29.0564 58.696 29.5604 58.58 30.1364 58.58ZM37.0924 65.072C36.4524 65.072 35.9564 64.9 35.6044 64.556C35.2524 64.212 35.0764 63.72 35.0764 63.08V57.248H36.2284V63.032C36.2284 63.376 36.3124 63.64 36.4804 63.824C36.6564 64.008 36.9044 64.1 37.2244 64.1C37.5844 64.1 37.8844 64 38.1244 63.8L38.4844 64.628C38.3084 64.78 38.0964 64.892 37.8484 64.964C37.6084 65.036 37.3564 65.072 37.0924 65.072ZM33.9964 59.588V58.64H38.0524V59.588H33.9964ZM42.3902 65.072C41.7502 65.072 41.1822 64.932 40.6862 64.652C40.1902 64.372 39.7982 63.988 39.5102 63.5C39.2222 63.004 39.0782 62.444 39.0782 61.82C39.0782 61.188 39.2222 60.628 39.5102 60.14C39.7982 59.652 40.1902 59.272 40.6862 59C41.1822 58.72 41.7502 58.58 42.3902 58.58C43.0222 58.58 43.5862 58.72 44.0822 59C44.5862 59.272 44.9782 59.652 45.2582 60.14C45.5462 60.62 45.6902 61.18 45.6902 61.82C45.6902 62.452 45.5462 63.012 45.2582 63.5C44.9782 63.988 44.5862 64.372 44.0822 64.652C43.5862 64.932 43.0222 65.072 42.3902 65.072ZM42.3902 64.064C42.7982 64.064 43.1622 63.972 43.4822 63.788C43.8102 63.604 44.0662 63.344 44.2502 63.008C44.4342 62.664 44.5262 62.268 44.5262 61.82C44.5262 61.364 44.4342 60.972 44.2502 60.644C44.0662 60.308 43.8102 60.048 43.4822 59.864C43.1622 59.68 42.7982 59.588 42.3902 59.588C41.9822 59.588 41.6182 59.68 41.2982 59.864C40.9782 60.048 40.7222 60.308 40.5302 60.644C40.3382 60.972 40.2422 61.364 40.2422 61.82C40.2422 62.268 40.3382 62.664 40.5302 63.008C40.7222 63.344 40.9782 63.604 41.2982 63.788C41.6182 63.972 41.9822 64.064 42.3902 64.064ZM47.2834 65V58.64H48.3874V60.368L48.2794 59.936C48.4554 59.496 48.7514 59.16 49.1674 58.928C49.5834 58.696 50.0954 58.58 50.7034 58.58V59.696C50.6554 59.688 50.6074 59.684 50.5594 59.684C50.5194 59.684 50.4794 59.684 50.4394 59.684C49.8234 59.684 49.3354 59.868 48.9754 60.236C48.6154 60.604 48.4354 61.136 48.4354 61.832V65H47.2834ZM52.6571 67.4C52.3531 67.4 52.0571 67.348 51.7691 67.244C51.4811 67.148 51.2331 67.004 51.0251 66.812L51.5171 65.948C51.6771 66.1 51.8531 66.216 52.0451 66.296C52.2371 66.376 52.4411 66.416 52.6571 66.416C52.9371 66.416 53.1691 66.344 53.3531 66.2C53.5371 66.056 53.7091 65.8 53.8691 65.432L54.2651 64.556L54.3851 64.412L56.8811 58.64H58.0091L54.9251 65.636C54.7411 66.084 54.5331 66.436 54.3011 66.692C54.0771 66.948 53.8291 67.128 53.5571 67.232C53.2851 67.344 52.9851 67.4 52.6571 67.4ZM54.1691 65.204L51.2651 58.64H52.4651L54.9371 64.304L54.1691 65.204Z" fill="black"/>
</svg>
