<svg width="50" height="52" viewBox="0 0 50 52" fill="none" xmlns="http://www.w3.org/2000/svg">
<mask id="mask0_7_168" style="mask-type:alpha" maskUnits="userSpaceOnUse" x="0" y="0" width="50" height="52">
<rect x="0.333313" width="49.5926" height="52" fill="#D9D9D9"/>
</mask>
<g mask="url(#mask0_7_168)">
<path d="M8.59872 45.5C7.46222 45.5 6.48966 45.0761 5.68102 44.2282C4.87101 43.3788 4.466 42.3583 4.466 41.1667V17.3333C4.466 16.1417 4.87101 15.1219 5.68102 14.274C6.48966 13.4247 7.46222 13 8.59872 13H16.8642V8.66666C16.8642 7.475 17.2692 6.45449 18.0792 5.60516C18.8878 4.75727 19.8604 4.33333 20.9969 4.33333H29.2623C30.3988 4.33333 31.3721 4.75727 32.1821 5.60516C32.9907 6.45449 33.395 7.475 33.395 8.66666V13H41.6604C42.7969 13 43.7702 13.4247 44.5802 14.274C45.3888 15.1219 45.7932 16.1417 45.7932 17.3333V41.1667C45.7932 42.3583 45.3888 43.3788 44.5802 44.2282C43.7702 45.0761 42.7969 45.5 41.6604 45.5H8.59872ZM20.9969 13H29.2623V8.66666H20.9969V13ZM41.6604 32.5H31.3287V36.8333H18.9305V32.5H8.59872V41.1667H41.6604V32.5ZM23.0632 32.5H27.1959V28.1667H23.0632V32.5ZM8.59872 28.1667H18.9305V23.8333H31.3287V28.1667H41.6604V17.3333H8.59872V28.1667Z" fill="black"/>
</g>
</svg>
