<svg width="50" height="52" viewBox="0 0 50 52" fill="none" xmlns="http://www.w3.org/2000/svg">
<mask id="mask0_7_162" style="mask-type:alpha" maskUnits="userSpaceOnUse" x="0" y="0" width="50" height="52">
<rect x="0.333313" width="49.5926" height="52" fill="#D9D9D9"/>
</mask>
<g mask="url(#mask0_7_162)">
<path d="M0.333313 39V35.5875C0.333313 33.9986 1.09993 32.7253 2.63317 31.7677C4.16503 30.8114 6.15355 30.3333 8.59875 30.3333C9.04646 30.3333 9.47695 30.342 9.89022 30.3593C10.3035 30.3781 10.6995 30.4236 11.0784 30.4958C10.5962 31.2181 10.2346 31.9944 9.99354 32.825C9.75246 33.6556 9.63192 34.5403 9.63192 35.4792V39H0.333313ZM12.7315 39V35.4792C12.7315 33.1319 13.8769 31.2361 16.1678 29.7917C18.4573 28.3472 21.4446 27.625 25.1296 27.625C28.8491 27.625 31.8453 28.3472 34.1183 29.7917C36.3913 31.2361 37.5278 33.1319 37.5278 35.4792V39H12.7315ZM40.6273 39V35.4792C40.6273 34.5403 40.515 33.6556 40.2905 32.825C40.0673 31.9944 39.7319 31.2181 39.2842 30.4958C39.663 30.4236 40.0508 30.3781 40.4475 30.3593C40.8429 30.342 41.2472 30.3333 41.6605 30.3333C44.1401 30.3333 46.1376 30.8114 47.6529 31.7677C49.1682 32.7253 49.9259 33.9986 49.9259 35.5875V39H40.6273ZM25.1296 31.9583C23.1666 31.9583 21.4102 32.2292 19.8604 32.7708C18.3106 33.3125 17.398 33.9444 17.1225 34.6667H33.1884C32.8785 33.9444 31.9569 33.3125 30.4236 32.7708C28.8918 32.2292 27.1271 31.9583 25.1296 31.9583ZM8.59875 28.1667C7.46225 28.1667 6.48968 27.742 5.68105 26.8927C4.87104 26.0448 4.46603 25.025 4.46603 23.8333C4.46603 22.6056 4.87104 21.5764 5.68105 20.7458C6.48968 19.9153 7.46225 19.5 8.59875 19.5C9.76968 19.5 10.7512 19.9153 11.5433 20.7458C12.3354 21.5764 12.7315 22.6056 12.7315 23.8333C12.7315 25.025 12.3354 26.0448 11.5433 26.8927C10.7512 27.742 9.76968 28.1667 8.59875 28.1667ZM41.6605 28.1667C40.524 28.1667 39.5507 27.742 38.7407 26.8927C37.9321 26.0448 37.5278 25.025 37.5278 23.8333C37.5278 22.6056 37.9321 21.5764 38.7407 20.7458C39.5507 19.9153 40.524 19.5 41.6605 19.5C42.8314 19.5 43.8129 19.9153 44.605 20.7458C45.3971 21.5764 45.7932 22.6056 45.7932 23.8333C45.7932 25.025 45.3971 26.0448 44.605 26.8927C43.8129 27.742 42.8314 28.1667 41.6605 28.1667ZM25.1296 26C23.4076 26 21.944 25.3681 20.7386 24.1042C19.5332 22.8403 18.9305 21.3056 18.9305 19.5C18.9305 17.6583 19.5332 16.1142 20.7386 14.8677C21.944 13.6226 23.4076 13 25.1296 13C26.886 13 28.358 13.6226 29.5454 14.8677C30.7343 16.1142 31.3287 17.6583 31.3287 19.5C31.3287 21.3056 30.7343 22.8403 29.5454 24.1042C28.358 25.3681 26.886 26 25.1296 26ZM25.1296 17.3333C24.5441 17.3333 24.0537 17.5406 23.6584 17.9552C23.2616 18.3712 23.0633 18.8861 23.0633 19.5C23.0633 20.1139 23.2616 20.6281 23.6584 21.0427C24.0537 21.4587 24.5441 21.6667 25.1296 21.6667C25.7151 21.6667 26.2062 21.4587 26.6029 21.0427C26.9983 20.6281 27.196 20.1139 27.196 19.5C27.196 18.8861 26.9983 18.3712 26.6029 17.9552C26.2062 17.5406 25.7151 17.3333 25.1296 17.3333Z" fill="black"/>
</g>
</svg>
