<svg width="50" height="65" viewBox="0 0 50 65" fill="none" xmlns="http://www.w3.org/2000/svg">
<mask id="mask0_384_28" style="mask-type:alpha" maskUnits="userSpaceOnUse" x="0" y="0" width="50" height="50">
<rect width="50" height="50" fill="#D9D9D9"/>
</mask>
<g mask="url(#mask0_384_28)">
<path d="M0 37.5V34.2187C0 32.691 0.772917 31.4667 2.31875 30.5458C3.86319 29.6264 5.86806 29.1667 8.33333 29.1667C8.78472 29.1667 9.21875 29.175 9.63542 29.1917C10.0521 29.2097 10.4514 29.2535 10.8333 29.3229C10.3472 30.0174 9.98264 30.7639 9.73958 31.5625C9.49653 32.3611 9.375 33.2118 9.375 34.1146V37.5H0ZM12.5 37.5V34.1146C12.5 31.8576 13.6549 30.0347 15.9646 28.6458C18.2729 27.2569 21.2847 26.5625 25 26.5625C28.75 26.5625 31.7708 27.2569 34.0625 28.6458C36.3542 30.0347 37.5 31.8576 37.5 34.1146V37.5H12.5ZM40.625 37.5V34.1146C40.625 33.2118 40.5118 32.3611 40.2854 31.5625C40.0604 30.7639 39.7222 30.0174 39.2708 29.3229C39.6528 29.2535 40.0437 29.2097 40.4437 29.1917C40.8424 29.175 41.25 29.1667 41.6667 29.1667C44.1667 29.1667 46.1806 29.6264 47.7083 30.5458C49.2361 31.4667 50 32.691 50 34.2187V37.5H40.625ZM25 30.7292C23.0208 30.7292 21.25 30.9896 19.6875 31.5104C18.125 32.0312 17.2049 32.6389 16.9271 33.3333H33.125C32.8125 32.6389 31.8833 32.0312 30.3375 31.5104C28.7931 30.9896 27.0139 30.7292 25 30.7292ZM8.33333 27.0833C7.1875 27.0833 6.20694 26.675 5.39167 25.8583C4.575 25.0431 4.16667 24.0625 4.16667 22.9167C4.16667 21.7361 4.575 20.7465 5.39167 19.9479C6.20694 19.1493 7.1875 18.75 8.33333 18.75C9.51389 18.75 10.5035 19.1493 11.3021 19.9479C12.1007 20.7465 12.5 21.7361 12.5 22.9167C12.5 24.0625 12.1007 25.0431 11.3021 25.8583C10.5035 26.675 9.51389 27.0833 8.33333 27.0833ZM41.6667 27.0833C40.5208 27.0833 39.5396 26.675 38.7229 25.8583C37.9076 25.0431 37.5 24.0625 37.5 22.9167C37.5 21.7361 37.9076 20.7465 38.7229 19.9479C39.5396 19.1493 40.5208 18.75 41.6667 18.75C42.8472 18.75 43.8368 19.1493 44.6354 19.9479C45.434 20.7465 45.8333 21.7361 45.8333 22.9167C45.8333 24.0625 45.434 25.0431 44.6354 25.8583C43.8368 26.675 42.8472 27.0833 41.6667 27.0833ZM25 25C23.2639 25 21.7882 24.3924 20.5729 23.1771C19.3576 21.9618 18.75 20.4861 18.75 18.75C18.75 16.9792 19.3576 15.4944 20.5729 14.2958C21.7882 13.0986 23.2639 12.5 25 12.5C26.7708 12.5 28.2549 13.0986 29.4521 14.2958C30.6507 15.4944 31.25 16.9792 31.25 18.75C31.25 20.4861 30.6507 21.9618 29.4521 23.1771C28.2549 24.3924 26.7708 25 25 25ZM25 16.6667C24.4097 16.6667 23.9153 16.866 23.5167 17.2646C23.1167 17.6646 22.9167 18.1597 22.9167 18.75C22.9167 19.3403 23.1167 19.8347 23.5167 20.2333C23.9153 20.6333 24.4097 20.8333 25 20.8333C25.5903 20.8333 26.0854 20.6333 26.4854 20.2333C26.884 19.8347 27.0833 19.3403 27.0833 18.75C27.0833 18.1597 26.884 17.6646 26.4854 17.2646C26.0854 16.866 25.5903 16.6667 25 16.6667Z" fill="black"/>
</g>
<path d="M4.64078 57.572H8.97278V58.604H4.64078V57.572ZM4.76078 62H3.56078V53.6H9.48878V54.644H4.76078V62ZM10.8928 62V55.64H11.9968V57.368L11.8888 56.936C12.0648 56.496 12.3608 56.16 12.7768 55.928C13.1928 55.696 13.7048 55.58 14.3128 55.58V56.696C14.2648 56.688 14.2168 56.684 14.1688 56.684C14.1288 56.684 14.0888 56.684 14.0488 56.684C13.4328 56.684 12.9448 56.868 12.5848 57.236C12.2248 57.604 12.0448 58.136 12.0448 58.832V62H10.8928ZM15.7326 62V55.64H16.8846V62H15.7326ZM16.3086 54.416C16.0846 54.416 15.8966 54.344 15.7446 54.2C15.6006 54.056 15.5286 53.88 15.5286 53.672C15.5286 53.456 15.6006 53.276 15.7446 53.132C15.8966 52.988 16.0846 52.916 16.3086 52.916C16.5326 52.916 16.7166 52.988 16.8606 53.132C17.0126 53.268 17.0886 53.44 17.0886 53.648C17.0886 53.864 17.0166 54.048 16.8726 54.2C16.7286 54.344 16.5406 54.416 16.3086 54.416ZM21.9162 62.072C21.2362 62.072 20.6362 61.932 20.1162 61.652C19.6042 61.372 19.2042 60.988 18.9162 60.5C18.6362 60.012 18.4962 59.452 18.4962 58.82C18.4962 58.188 18.6322 57.628 18.9042 57.14C19.1842 56.652 19.5642 56.272 20.0442 56C20.5322 55.72 21.0802 55.58 21.6882 55.58C22.3042 55.58 22.8482 55.716 23.3202 55.988C23.7922 56.26 24.1602 56.644 24.4242 57.14C24.6962 57.628 24.8322 58.2 24.8322 58.856C24.8322 58.904 24.8282 58.96 24.8202 59.024C24.8202 59.088 24.8162 59.148 24.8082 59.204H19.3962V58.376H24.2082L23.7402 58.664C23.7482 58.256 23.6642 57.892 23.4882 57.572C23.3122 57.252 23.0682 57.004 22.7562 56.828C22.4522 56.644 22.0962 56.552 21.6882 56.552C21.2882 56.552 20.9322 56.644 20.6202 56.828C20.3082 57.004 20.0642 57.256 19.8882 57.584C19.7122 57.904 19.6242 58.272 19.6242 58.688V58.88C19.6242 59.304 19.7202 59.684 19.9122 60.02C20.1122 60.348 20.3882 60.604 20.7402 60.788C21.0922 60.972 21.4962 61.064 21.9522 61.064C22.3282 61.064 22.6682 61 22.9722 60.872C23.2842 60.744 23.5562 60.552 23.7882 60.296L24.4242 61.04C24.1362 61.376 23.7762 61.632 23.3442 61.808C22.9202 61.984 22.4442 62.072 21.9162 62.072ZM29.8278 55.58C30.3478 55.58 30.8038 55.68 31.1958 55.88C31.5958 56.08 31.9078 56.384 32.1318 56.792C32.3558 57.2 32.4678 57.716 32.4678 58.34V62H31.3158V58.472C31.3158 57.856 31.1638 57.392 30.8598 57.08C30.5638 56.768 30.1438 56.612 29.5998 56.612C29.1918 56.612 28.8358 56.692 28.5318 56.852C28.2278 57.012 27.9918 57.248 27.8238 57.56C27.6638 57.872 27.5838 58.26 27.5838 58.724V62H26.4318V55.64H27.5358V57.356L27.3558 56.9C27.5638 56.484 27.8838 56.16 28.3158 55.928C28.7478 55.696 29.2518 55.58 29.8278 55.58ZM37.2278 62.072C36.6118 62.072 36.0598 61.936 35.5718 61.664C35.0918 61.392 34.7118 61.012 34.4318 60.524C34.1518 60.036 34.0118 59.468 34.0118 58.82C34.0118 58.172 34.1518 57.608 34.4318 57.128C34.7118 56.64 35.0918 56.26 35.5718 55.988C36.0598 55.716 36.6118 55.58 37.2278 55.58C37.7638 55.58 38.2478 55.7 38.6798 55.94C39.1118 56.18 39.4558 56.54 39.7118 57.02C39.9758 57.5 40.1078 58.1 40.1078 58.82C40.1078 59.54 39.9798 60.14 39.7238 60.62C39.4758 61.1 39.1358 61.464 38.7038 61.712C38.2718 61.952 37.7798 62.072 37.2278 62.072ZM37.3238 61.064C37.7238 61.064 38.0838 60.972 38.4038 60.788C38.7318 60.604 38.9878 60.344 39.1718 60.008C39.3638 59.664 39.4598 59.268 39.4598 58.82C39.4598 58.364 39.3638 57.972 39.1718 57.644C38.9878 57.308 38.7318 57.048 38.4038 56.864C38.0838 56.68 37.7238 56.588 37.3238 56.588C36.9158 56.588 36.5518 56.68 36.2318 56.864C35.9118 57.048 35.6558 57.308 35.4638 57.644C35.2718 57.972 35.1758 58.364 35.1758 58.82C35.1758 59.268 35.2718 59.664 35.4638 60.008C35.6558 60.344 35.9118 60.604 36.2318 60.788C36.5518 60.972 36.9158 61.064 37.3238 61.064ZM39.4958 62V60.284L39.5678 58.808L39.4478 57.332V53.096H40.5998V62H39.4958ZM44.6035 62.072C44.0755 62.072 43.5715 62 43.0915 61.856C42.6195 61.712 42.2475 61.536 41.9755 61.328L42.4555 60.416C42.7275 60.6 43.0635 60.756 43.4635 60.884C43.8635 61.012 44.2715 61.076 44.6875 61.076C45.2235 61.076 45.6075 61 45.8395 60.848C46.0795 60.696 46.1995 60.484 46.1995 60.212C46.1995 60.012 46.1275 59.856 45.9835 59.744C45.8395 59.632 45.6475 59.548 45.4075 59.492C45.1755 59.436 44.9155 59.388 44.6275 59.348C44.3395 59.3 44.0515 59.244 43.7635 59.18C43.4755 59.108 43.2115 59.012 42.9715 58.892C42.7315 58.764 42.5395 58.592 42.3955 58.376C42.2515 58.152 42.1795 57.856 42.1795 57.488C42.1795 57.104 42.2875 56.768 42.5035 56.48C42.7195 56.192 43.0235 55.972 43.4155 55.82C43.8155 55.66 44.2875 55.58 44.8315 55.58C45.2475 55.58 45.6675 55.632 46.0915 55.736C46.5235 55.832 46.8755 55.972 47.1475 56.156L46.6555 57.068C46.3675 56.876 46.0675 56.744 45.7555 56.672C45.4435 56.6 45.1315 56.564 44.8195 56.564C44.3155 56.564 43.9395 56.648 43.6915 56.816C43.4435 56.976 43.3195 57.184 43.3195 57.44C43.3195 57.656 43.3915 57.824 43.5355 57.944C43.6875 58.056 43.8795 58.144 44.1115 58.208C44.3515 58.272 44.6155 58.328 44.9035 58.376C45.1915 58.416 45.4795 58.472 45.7675 58.544C46.0555 58.608 46.3155 58.7 46.5475 58.82C46.7875 58.94 46.9795 59.108 47.1235 59.324C47.2755 59.54 47.3515 59.828 47.3515 60.188C47.3515 60.572 47.2395 60.904 47.0155 61.184C46.7915 61.464 46.4755 61.684 46.0675 61.844C45.6595 61.996 45.1715 62.072 44.6035 62.072Z" fill="black"/>
</svg>
