<svg width="30" height="30" viewBox="0 0 30 30" fill="none" xmlns="http://www.w3.org/2000/svg">
<g clip-path="url(#clip0_412_474)">
<path d="M1.66992 0.111328C1.03711 0.339844 0.503906 0.820312 0.199219 1.43555L0.0292969 1.78711V13.7402V25.6934L0.216797 26.0742C0.322266 26.2852 0.486328 26.5488 0.580078 26.666C0.990234 27.1582 1.17188 27.2344 5.4375 28.6582L9.46289 30.0059L10.0781 29.9883C10.6406 29.9707 10.7344 29.9531 11.0918 29.7773C11.5664 29.543 12.0059 29.127 12.2109 28.7227C12.4629 28.2305 12.5391 27.8203 12.5391 27V26.25H14.8477C17.1562 26.25 17.1621 26.25 17.6309 26.1035C18.7793 25.7402 19.6992 24.7207 19.9512 23.5254C20.0215 23.1973 20.0391 22.5176 20.0391 20.0684C20.0391 17.0215 20.0391 17.0156 19.9102 16.7578C19.7227 16.4004 19.5234 16.2715 19.1191 16.2422C18.832 16.2246 18.7441 16.2422 18.5742 16.3594C18.4629 16.4355 18.3105 16.5879 18.2402 16.6934L18.1055 16.8926V19.9219C18.1055 23.3262 18.1055 23.3379 17.6953 23.8008C17.5605 23.9531 17.3379 24.123 17.1562 24.2051C16.8516 24.3457 16.8164 24.3457 14.6953 24.3633L12.5391 24.3809V14.6016C12.5391 8.23828 12.5156 4.71094 12.4805 4.50586C12.3633 3.89062 11.9531 3.26953 11.4199 2.89453C11.2793 2.79492 10.6582 2.54883 9.9375 2.30273L8.70117 1.88086L12.7734 1.89258L16.8457 1.9043L17.1562 2.04492C17.3379 2.12695 17.5605 2.29688 17.6953 2.44922C18.1055 2.91211 18.1055 2.92383 18.1055 6.32812V9.35742L18.2402 9.55664C18.3105 9.66211 18.4629 9.81445 18.5742 9.89062C18.7441 10.0078 18.832 10.0254 19.1191 10.0078C19.5234 9.97852 19.7227 9.84961 19.9102 9.49219C20.0391 9.23438 20.0391 9.22852 20.0391 6.18164C20.0391 3.73242 20.0215 3.05273 19.9512 2.72461C19.6992 1.5293 18.7793 0.509766 17.6309 0.146484L17.1621 0H9.5625C2.37891 0.00585938 1.94531 0.0117188 1.66992 0.111328ZM6.41602 3.18164C8.47852 3.87305 10.2246 4.46484 10.3008 4.50586C10.623 4.68164 10.6055 3.94922 10.6055 16.2246C10.6055 23.127 10.582 27.5859 10.5527 27.6738C10.459 27.9141 10.2539 28.0664 10.0254 28.0664C9.9082 28.0664 8.11523 27.498 6.01172 26.8008C3.11719 25.834 2.17383 25.4941 2.07422 25.3945C2.00391 25.3184 1.93359 25.1543 1.91016 25.0312C1.8457 24.6387 1.86914 2.625 1.93359 2.39062C2.00977 2.12695 2.23828 1.93359 2.48438 1.93359C2.58398 1.93359 4.35352 2.49609 6.41602 3.18164Z" fill="black"/>
<path d="M23.8594 7.61719C23.5781 7.78711 23.4375 8.05664 23.4375 8.42578C23.4375 8.5957 23.4668 8.79492 23.502 8.86523C23.5371 8.93555 24.2812 9.71484 25.1543 10.5879L26.748 12.1875H21.7969H16.8457L16.6348 12.3281C16.0957 12.6973 16.0957 13.5527 16.6348 13.9219L16.8457 14.0625H21.7969H26.748L25.1543 15.6562C24.2812 16.5352 23.5371 17.3145 23.502 17.3848C23.4668 17.4551 23.4375 17.6543 23.4375 17.8242C23.4375 18.3926 23.7949 18.75 24.3633 18.75C24.5332 18.75 24.7324 18.7207 24.8027 18.6855C24.9844 18.5918 29.8125 13.7754 29.918 13.582C29.9648 13.4941 30 13.2891 30 13.125C30 12.9609 29.9648 12.7559 29.918 12.668C29.8125 12.4746 24.9844 7.6582 24.8027 7.56445C24.5918 7.45898 24.0762 7.48828 23.8594 7.61719Z" fill="black"/>
</g>
<defs>
<clipPath id="clip0_412_474">
<rect width="30" height="30" fill="white"/>
</clipPath>
</defs>
</svg>
