<svg width="50" height="52" viewBox="0 0 50 52" fill="none" xmlns="http://www.w3.org/2000/svg">
<mask id="mask0_6_146" style="mask-type:alpha" maskUnits="userSpaceOnUse" x="0" y="0" width="50" height="52">
<rect x="0.333313" width="49.5926" height="52" fill="#D9D9D9"/>
</mask>
<g mask="url(#mask0_6_146)">
<path d="M9.6319 26.2708C8.18545 26.2708 6.96285 25.7472 5.96411 24.7C4.96537 23.6528 4.466 22.3708 4.466 20.8541C4.466 19.3375 4.96537 18.0555 5.96411 17.0083C6.96285 15.9611 8.18545 15.4375 9.6319 15.4375C11.0784 15.4375 12.3009 15.9611 13.2997 17.0083C14.2984 18.0555 14.7978 19.3375 14.7978 20.8541C14.7978 22.3708 14.2984 23.6528 13.2997 24.7C12.3009 25.7472 11.0784 26.2708 9.6319 26.2708ZM18.9305 17.6041C17.4841 17.6041 16.2615 17.0805 15.2627 16.0333C14.264 14.9861 13.7646 13.7041 13.7646 12.1875C13.7646 10.6708 14.264 9.38887 15.2627 8.34165C16.2615 7.29442 17.4841 6.77081 18.9305 6.77081C20.377 6.77081 21.5996 7.29442 22.5983 8.34165C23.597 9.38887 24.0964 10.6708 24.0964 12.1875C24.0964 13.7041 23.597 14.9861 22.5983 16.0333C21.5996 17.0805 20.377 17.6041 18.9305 17.6041ZM31.3287 17.6041C29.8822 17.6041 28.6596 17.0805 27.6609 16.0333C26.6621 14.9861 26.1628 13.7041 26.1628 12.1875C26.1628 10.6708 26.6621 9.38887 27.6609 8.34165C28.6596 7.29442 29.8822 6.77081 31.3287 6.77081C32.7751 6.77081 33.9977 7.29442 34.9964 8.34165C35.9952 9.38887 36.4946 10.6708 36.4946 12.1875C36.4946 13.7041 35.9952 14.9861 34.9964 16.0333C33.9977 17.0805 32.7751 17.6041 31.3287 17.6041ZM40.6273 26.2708C39.1808 26.2708 37.9582 25.7472 36.9595 24.7C35.9607 23.6528 35.4614 22.3708 35.4614 20.8541C35.4614 19.3375 35.9607 18.0555 36.9595 17.0083C37.9582 15.9611 39.1808 15.4375 40.6273 15.4375C42.0737 15.4375 43.2963 15.9611 44.2951 17.0083C45.2938 18.0555 45.7932 19.3375 45.7932 20.8541C45.7932 22.3708 45.2938 23.6528 44.2951 24.7C43.2963 25.7472 42.0737 26.2708 40.6273 26.2708ZM14.0746 47.9375C12.5248 47.9375 11.2251 47.3142 10.1754 46.0676C9.12426 44.8225 8.59872 43.3514 8.59872 41.6541C8.59872 39.7764 9.21036 38.1333 10.4336 36.725C11.6556 35.3166 12.8692 33.9264 14.0746 32.5541C15.0733 31.4347 15.9343 30.2156 16.6575 28.8968C17.3807 27.5795 18.2417 26.343 19.2405 25.1875C19.9981 24.2486 20.8763 23.4722 21.8751 22.8583C22.8738 22.2444 23.9587 21.9375 25.1296 21.9375C26.3005 21.9375 27.3854 22.2264 28.3841 22.8041C29.3828 23.3819 30.261 24.1403 31.0187 25.0791C31.983 26.2347 32.835 27.4805 33.5748 28.8166C34.3159 30.1528 35.1859 31.3986 36.1846 32.5541C37.39 33.9264 38.6043 35.3166 39.8276 36.725C41.0495 38.1333 41.6605 39.7764 41.6605 41.6541C41.6605 43.3514 41.1356 44.8225 40.0859 46.0676C39.0348 47.3142 37.7344 47.9375 36.1846 47.9375C34.3249 47.9375 32.4824 47.775 30.6571 47.45C28.8318 47.125 26.9893 46.9625 25.1296 46.9625C23.2699 46.9625 21.4274 47.125 19.6021 47.45C17.7768 47.775 15.9343 47.9375 14.0746 47.9375Z" fill="black"/>
</g>
</svg>
