<svg width="66" height="85" viewBox="0 0 66 85" fill="none" xmlns="http://www.w3.org/2000/svg">
<mask id="mask0_384_25" style="mask-type:alpha" maskUnits="userSpaceOnUse" x="8" y="0" width="51" height="50">
<rect x="8.48486" width="50" height="50" fill="#D9D9D9"/>
</mask>
<g mask="url(#mask0_384_25)">
<path d="M17.8598 25.2604C16.4015 25.2604 15.1689 24.7569 14.1619 23.75C13.155 22.743 12.6515 21.5104 12.6515 20.052C12.6515 18.5937 13.155 17.3611 14.1619 16.3541C15.1689 15.3472 16.4015 14.8437 17.8598 14.8437C19.3182 14.8437 20.5508 15.3472 21.5577 16.3541C22.5647 17.3611 23.0682 18.5937 23.0682 20.052C23.0682 21.5104 22.5647 22.743 21.5577 23.75C20.5508 24.7569 19.3182 25.2604 17.8598 25.2604ZM27.2348 16.927C25.7765 16.927 24.5439 16.4236 23.5369 15.4166C22.53 14.4097 22.0265 13.177 22.0265 11.7187C22.0265 10.2604 22.53 9.02774 23.5369 8.02079C24.5439 7.01385 25.7765 6.51038 27.2348 6.51038C28.6932 6.51038 29.9258 7.01385 30.9327 8.02079C31.9397 9.02774 32.4432 10.2604 32.4432 11.7187C32.4432 13.177 31.9397 14.4097 30.9327 15.4166C29.9258 16.4236 28.6932 16.927 27.2348 16.927ZM39.7348 16.927C38.2765 16.927 37.0439 16.4236 36.0369 15.4166C35.03 14.4097 34.5265 13.177 34.5265 11.7187C34.5265 10.2604 35.03 9.02774 36.0369 8.02079C37.0439 7.01385 38.2765 6.51038 39.7348 6.51038C41.1932 6.51038 42.4258 7.01385 43.4327 8.02079C44.4397 9.02774 44.9432 10.2604 44.9432 11.7187C44.9432 13.177 44.4397 14.4097 43.4327 15.4166C42.4258 16.4236 41.1932 16.927 39.7348 16.927ZM49.1098 25.2604C47.6515 25.2604 46.4189 24.7569 45.4119 23.75C44.405 22.743 43.9015 21.5104 43.9015 20.052C43.9015 18.5937 44.405 17.3611 45.4119 16.3541C46.4189 15.3472 47.6515 14.8437 49.1098 14.8437C50.5682 14.8437 51.8008 15.3472 52.8077 16.3541C53.8147 17.3611 54.3182 18.5937 54.3182 20.052C54.3182 21.5104 53.8147 22.743 52.8077 23.75C51.8008 24.7569 50.5682 25.2604 49.1098 25.2604ZM22.339 46.0937C20.7765 46.0937 19.4661 45.4944 18.4077 44.2958C17.348 43.0986 16.8182 41.684 16.8182 40.052C16.8182 38.2465 17.4348 36.6666 18.6682 35.3125C19.9001 33.9583 21.1237 32.6215 22.339 31.302C23.3459 30.2257 24.214 29.0534 24.9432 27.7854C25.6723 26.5187 26.5404 25.3298 27.5473 24.2187C28.3112 23.3159 29.1966 22.5694 30.2036 21.9791C31.2105 21.3888 32.3043 21.0937 33.4848 21.0937C34.6654 21.0937 35.7591 21.3715 36.7661 21.927C37.773 22.4826 38.6584 23.2118 39.4223 24.1145C40.3945 25.2257 41.2536 26.4236 41.9994 27.7083C42.7466 28.993 43.6237 30.1909 44.6307 31.302C45.8459 32.6215 47.0702 33.9583 48.3036 35.3125C49.5355 36.6666 50.1515 38.2465 50.1515 40.052C50.1515 41.684 49.6223 43.0986 48.564 44.2958C47.5043 45.4944 46.1932 46.0937 44.6307 46.0937C42.7557 46.0937 40.898 45.9375 39.0577 45.625C37.2175 45.3125 35.3598 45.1562 33.4848 45.1562C31.6098 45.1562 29.7522 45.3125 27.9119 45.625C26.0716 45.9375 24.214 46.0937 22.339 46.0937Z" fill="black"/>
</g>
<path d="M23.5666 67V58.6H24.5506L28.3186 64.948H27.7906L31.5106 58.6H32.4946L32.5066 67H31.3546L31.3426 60.412H31.6186L28.3066 65.98H27.7546L24.4186 60.412H24.7186V67H23.5666ZM35.1356 69.4C34.8316 69.4 34.5356 69.348 34.2476 69.244C33.9596 69.148 33.7116 69.004 33.5036 68.812L33.9956 67.948C34.1556 68.1 34.3316 68.216 34.5236 68.296C34.7156 68.376 34.9196 68.416 35.1356 68.416C35.4156 68.416 35.6476 68.344 35.8316 68.2C36.0156 68.056 36.1876 67.8 36.3476 67.432L36.7436 66.556L36.8636 66.412L39.3596 60.64H40.4876L37.4036 67.636C37.2196 68.084 37.0116 68.436 36.7796 68.692C36.5556 68.948 36.3076 69.128 36.0356 69.232C35.7636 69.344 35.4636 69.4 35.1356 69.4ZM36.6476 67.204L33.7436 60.64H34.9436L37.4156 66.304L36.6476 67.204ZM1.71117 82V73.6H4.98717C5.72317 73.6 6.35117 73.716 6.87117 73.948C7.39117 74.18 7.79117 74.516 8.07117 74.956C8.35117 75.396 8.49117 75.92 8.49117 76.528C8.49117 77.136 8.35117 77.66 8.07117 78.1C7.79117 78.532 7.39117 78.868 6.87117 79.108C6.35117 79.34 5.72317 79.456 4.98717 79.456H2.37117L2.91117 78.892V82H1.71117ZM2.91117 79.012L2.37117 78.412H4.95117C5.71917 78.412 6.29917 78.248 6.69117 77.92C7.09117 77.592 7.29117 77.128 7.29117 76.528C7.29117 75.928 7.09117 75.464 6.69117 75.136C6.29917 74.808 5.71917 74.644 4.95117 74.644H2.37117L2.91117 74.044V79.012ZM12.7867 82.072C12.1467 82.072 11.5787 81.932 11.0827 81.652C10.5867 81.372 10.1947 80.988 9.9067 80.5C9.6187 80.004 9.4747 79.444 9.4747 78.82C9.4747 78.188 9.6187 77.628 9.9067 77.14C10.1947 76.652 10.5867 76.272 11.0827 76C11.5787 75.72 12.1467 75.58 12.7867 75.58C13.4187 75.58 13.9827 75.72 14.4787 76C14.9827 76.272 15.3747 76.652 15.6547 77.14C15.9427 77.62 16.0867 78.18 16.0867 78.82C16.0867 79.452 15.9427 80.012 15.6547 80.5C15.3747 80.988 14.9827 81.372 14.4787 81.652C13.9827 81.932 13.4187 82.072 12.7867 82.072ZM12.7867 81.064C13.1947 81.064 13.5587 80.972 13.8787 80.788C14.2067 80.604 14.4627 80.344 14.6467 80.008C14.8307 79.664 14.9227 79.268 14.9227 78.82C14.9227 78.364 14.8307 77.972 14.6467 77.644C14.4627 77.308 14.2067 77.048 13.8787 76.864C13.5587 76.68 13.1947 76.588 12.7867 76.588C12.3787 76.588 12.0147 76.68 11.6947 76.864C11.3747 77.048 11.1187 77.308 10.9267 77.644C10.7347 77.972 10.6387 78.364 10.6387 78.82C10.6387 79.268 10.7347 79.664 10.9267 80.008C11.1187 80.344 11.3747 80.604 11.6947 80.788C12.0147 80.972 12.3787 81.064 12.7867 81.064ZM18.6159 80.464L18.6399 78.988L22.2999 75.64H23.6919L20.8839 78.4L20.2599 78.928L18.6159 80.464ZM17.6799 82V73.096H18.8319V82H17.6799ZM22.5399 82L20.0439 78.904L20.7879 77.98L23.9559 82H22.5399ZM27.6486 82.072C26.9686 82.072 26.3686 81.932 25.8486 81.652C25.3366 81.372 24.9366 80.988 24.6486 80.5C24.3686 80.012 24.2286 79.452 24.2286 78.82C24.2286 78.188 24.3646 77.628 24.6366 77.14C24.9166 76.652 25.2966 76.272 25.7766 76C26.2646 75.72 26.8126 75.58 27.4206 75.58C28.0366 75.58 28.5806 75.716 29.0526 75.988C29.5246 76.26 29.8926 76.644 30.1566 77.14C30.4286 77.628 30.5646 78.2 30.5646 78.856C30.5646 78.904 30.5606 78.96 30.5526 79.024C30.5526 79.088 30.5486 79.148 30.5406 79.204H25.1286V78.376H29.9406L29.4726 78.664C29.4806 78.256 29.3966 77.892 29.2206 77.572C29.0446 77.252 28.8006 77.004 28.4886 76.828C28.1846 76.644 27.8286 76.552 27.4206 76.552C27.0206 76.552 26.6646 76.644 26.3526 76.828C26.0406 77.004 25.7966 77.256 25.6206 77.584C25.4446 77.904 25.3566 78.272 25.3566 78.688V78.88C25.3566 79.304 25.4526 79.684 25.6446 80.02C25.8446 80.348 26.1206 80.604 26.4726 80.788C26.8246 80.972 27.2286 81.064 27.6846 81.064C28.0606 81.064 28.4006 81 28.7046 80.872C29.0166 80.744 29.2886 80.552 29.5206 80.296L30.1566 81.04C29.8686 81.376 29.5086 81.632 29.0766 81.808C28.6526 81.984 28.1766 82.072 27.6486 82.072ZM40.1203 75.58C40.6323 75.58 41.0843 75.68 41.4763 75.88C41.8683 76.08 42.1723 76.384 42.3883 76.792C42.6123 77.2 42.7243 77.716 42.7243 78.34V82H41.5723V78.472C41.5723 77.856 41.4283 77.392 41.1403 77.08C40.8523 76.768 40.4483 76.612 39.9283 76.612C39.5443 76.612 39.2083 76.692 38.9203 76.852C38.6323 77.012 38.4083 77.248 38.2483 77.56C38.0963 77.872 38.0203 78.26 38.0203 78.724V82H36.8683V78.472C36.8683 77.856 36.7243 77.392 36.4363 77.08C36.1563 76.768 35.7523 76.612 35.2243 76.612C34.8483 76.612 34.5163 76.692 34.2283 76.852C33.9403 77.012 33.7163 77.248 33.5563 77.56C33.3963 77.872 33.3163 78.26 33.3163 78.724V82H32.1643V75.64H33.2683V77.332L33.0883 76.9C33.2883 76.484 33.5963 76.16 34.0123 75.928C34.4283 75.696 34.9123 75.58 35.4643 75.58C36.0723 75.58 36.5963 75.732 37.0363 76.036C37.4763 76.332 37.7643 76.784 37.9003 77.392L37.4323 77.2C37.6243 76.712 37.9603 76.32 38.4403 76.024C38.9203 75.728 39.4803 75.58 40.1203 75.58ZM47.568 82.072C46.928 82.072 46.36 81.932 45.864 81.652C45.368 81.372 44.976 80.988 44.688 80.5C44.4 80.004 44.256 79.444 44.256 78.82C44.256 78.188 44.4 77.628 44.688 77.14C44.976 76.652 45.368 76.272 45.864 76C46.36 75.72 46.928 75.58 47.568 75.58C48.2 75.58 48.764 75.72 49.26 76C49.764 76.272 50.156 76.652 50.436 77.14C50.724 77.62 50.868 78.18 50.868 78.82C50.868 79.452 50.724 80.012 50.436 80.5C50.156 80.988 49.764 81.372 49.26 81.652C48.764 81.932 48.2 82.072 47.568 82.072ZM47.568 81.064C47.976 81.064 48.34 80.972 48.66 80.788C48.988 80.604 49.244 80.344 49.428 80.008C49.612 79.664 49.704 79.268 49.704 78.82C49.704 78.364 49.612 77.972 49.428 77.644C49.244 77.308 48.988 77.048 48.66 76.864C48.34 76.68 47.976 76.588 47.568 76.588C47.16 76.588 46.796 76.68 46.476 76.864C46.156 77.048 45.9 77.308 45.708 77.644C45.516 77.972 45.42 78.364 45.42 78.82C45.42 79.268 45.516 79.664 45.708 80.008C45.9 80.344 46.156 80.604 46.476 80.788C46.796 80.972 47.16 81.064 47.568 81.064ZM55.8571 75.58C56.3771 75.58 56.8331 75.68 57.2251 75.88C57.6251 76.08 57.9371 76.384 58.1611 76.792C58.3851 77.2 58.4971 77.716 58.4971 78.34V82H57.3451V78.472C57.3451 77.856 57.1931 77.392 56.8891 77.08C56.5931 76.768 56.1731 76.612 55.6291 76.612C55.2211 76.612 54.8651 76.692 54.5611 76.852C54.2571 77.012 54.0211 77.248 53.8531 77.56C53.6931 77.872 53.6131 78.26 53.6131 78.724V82H52.4611V75.64H53.5651V77.356L53.3851 76.9C53.5931 76.484 53.9131 76.16 54.3451 75.928C54.7771 75.696 55.2811 75.58 55.8571 75.58ZM62.4531 82.072C61.9251 82.072 61.4211 82 60.9411 81.856C60.4691 81.712 60.0971 81.536 59.8251 81.328L60.3051 80.416C60.5771 80.6 60.9131 80.756 61.3131 80.884C61.7131 81.012 62.1211 81.076 62.5371 81.076C63.0731 81.076 63.4571 81 63.6891 80.848C63.9291 80.696 64.0491 80.484 64.0491 80.212C64.0491 80.012 63.9771 79.856 63.8331 79.744C63.6891 79.632 63.4971 79.548 63.2571 79.492C63.0251 79.436 62.7651 79.388 62.4771 79.348C62.1891 79.3 61.9011 79.244 61.6131 79.18C61.3251 79.108 61.0611 79.012 60.8211 78.892C60.5811 78.764 60.3891 78.592 60.2451 78.376C60.1011 78.152 60.0291 77.856 60.0291 77.488C60.0291 77.104 60.1371 76.768 60.3531 76.48C60.5691 76.192 60.8731 75.972 61.2651 75.82C61.6651 75.66 62.1371 75.58 62.6811 75.58C63.0971 75.58 63.5171 75.632 63.9411 75.736C64.3731 75.832 64.7251 75.972 64.9971 76.156L64.5051 77.068C64.2171 76.876 63.9171 76.744 63.6051 76.672C63.2931 76.6 62.9811 76.564 62.6691 76.564C62.1651 76.564 61.7891 76.648 61.5411 76.816C61.2931 76.976 61.1691 77.184 61.1691 77.44C61.1691 77.656 61.2411 77.824 61.3851 77.944C61.5371 78.056 61.7291 78.144 61.9611 78.208C62.2011 78.272 62.4651 78.328 62.7531 78.376C63.0411 78.416 63.3291 78.472 63.6171 78.544C63.9051 78.608 64.1651 78.7 64.3971 78.82C64.6371 78.94 64.8291 79.108 64.9731 79.324C65.1251 79.54 65.2011 79.828 65.2011 80.188C65.2011 80.572 65.0891 80.904 64.8651 81.184C64.6411 81.464 64.3251 81.684 63.9171 81.844C63.5091 81.996 63.0211 82.072 62.4531 82.072Z" fill="black"/>
</svg>
